<?xml version="1.0" encoding="UTF-8" standalone="no"?>
<!DOCTYPE svg PUBLIC "-//W3C//DTD SVG 1.0//EN"
 "http://www.w3.org/TR/2001/REC-SVG-20010904/DTD/svg10.dtd" [
 <!ATTLIST svg xmlns:xlink CDATA #FIXED "http://www.w3.org/1999/xlink">
]>
<!-- Generated by dot version 2.8 (Wed Oct  4 21:39:46 UTC 2006)
     For user: (garan) Garan Jones -->
<!-- Title: controllers_diagram Pages: 1 -->
<svg width="746pt" height="715pt"
 viewBox = "0 0 746 715"
 xmlns="http://www.w3.org/2000/svg" xmlns:xlink="http://www.w3.org/1999/xlink">
<g id="graph0" class="graph" style="font-family:Times-Roman;font-size:14.00;">
<title>controllers_diagram</title>
<polygon style="fill:white;stroke:white;" points="-2,717 -2,-2 748,-2 748,717 -2,717"/>
<!-- _diagram_info -->
<g id="node1" class="node"><title>_diagram_info</title>
<text text-anchor="start" x="545" y="263" style="font-size:13.00pt;">Controllers diagram</text>
<text text-anchor="start" x="545" y="278" style="font-size:13.00pt;">Date: Sep 20 2011 &#45; 16:09</text>
<text text-anchor="start" x="545" y="293" style="font-size:13.00pt;">Migration version: 20110920135845</text>
<text text-anchor="start" x="545" y="308" style="font-size:13.00pt;">Generated by RailRoady 1.0.2</text>
<text text-anchor="start" x="545" y="323" style="font-size:13.00pt;">http://railroady.prestonlee.com</text>
</g>
<!-- DrugsController -->
<g id="node2" class="node"><title>DrugsController</title>
<polyline style="fill:none;stroke:black;" points="339,710 425,710 "/>
<path style="fill:none;stroke:black;" d="M425,710C431,710 438,704 438,698"/>
<polyline style="fill:none;stroke:black;" points="438,698 438,530 "/>
<path style="fill:none;stroke:black;" d="M438,530C438,524 432,518 426,518"/>
<polyline style="fill:none;stroke:black;" points="426,518 340,518 "/>
<path style="fill:none;stroke:black;" d="M340,518C334,518 328,524 328,530"/>
<polyline style="fill:none;stroke:black;" points="328,530 328,698 "/>
<path style="fill:none;stroke:black;" d="M328,698C328,704 333,710 339,710"/>
<text text-anchor="middle" x="383" y="535">DrugsController</text>
<polyline style="fill:none;stroke:black;" points="328,542 438,542 "/>
<text text-anchor="start" x="336" y="559">create</text>
<text text-anchor="start" x="336" y="575">destroy</text>
<text text-anchor="start" x="336" y="591">edit</text>
<text text-anchor="start" x="336" y="607">index</text>
<text text-anchor="start" x="336" y="623">new</text>
<text text-anchor="start" x="336" y="639">show</text>
<text text-anchor="start" x="336" y="655">update</text>
<polyline style="fill:none;stroke:black;" points="328,662 438,662 "/>
<polyline style="fill:none;stroke:black;" points="328,686 438,686 "/>
<text text-anchor="start" x="336" y="703">_layout</text>
</g>
<!-- EthnicitiesController -->
<g id="node3" class="node"><title>EthnicitiesController</title>
<polyline style="fill:none;stroke:black;" points="396,292 506,292 "/>
<path style="fill:none;stroke:black;" d="M506,292C512,292 519,286 519,280"/>
<polyline style="fill:none;stroke:black;" points="519,280 519,112 "/>
<path style="fill:none;stroke:black;" d="M519,112C519,106 513,100 507,100"/>
<polyline style="fill:none;stroke:black;" points="507,100 397,100 "/>
<path style="fill:none;stroke:black;" d="M397,100C391,100 385,106 385,112"/>
<polyline style="fill:none;stroke:black;" points="385,112 385,280 "/>
<path style="fill:none;stroke:black;" d="M385,280C385,286 390,292 396,292"/>
<text text-anchor="middle" x="452" y="117">EthnicitiesController</text>
<polyline style="fill:none;stroke:black;" points="385,124 519,124 "/>
<text text-anchor="start" x="393" y="141">create</text>
<text text-anchor="start" x="393" y="157">destroy</text>
<text text-anchor="start" x="393" y="173">edit</text>
<text text-anchor="start" x="393" y="189">index</text>
<text text-anchor="start" x="393" y="205">new</text>
<text text-anchor="start" x="393" y="221">show</text>
<text text-anchor="start" x="393" y="237">update</text>
<polyline style="fill:none;stroke:black;" points="385,244 519,244 "/>
<polyline style="fill:none;stroke:black;" points="385,268 519,268 "/>
<text text-anchor="start" x="393" y="285">_layout</text>
</g>
<!-- ConsultationsController -->
<g id="node4" class="node"><title>ConsultationsController</title>
<polyline style="fill:none;stroke:black;" points="169,330 296,330 "/>
<path style="fill:none;stroke:black;" d="M296,330C302,330 308,324 308,318"/>
<polyline style="fill:none;stroke:black;" points="308,318 308,150 "/>
<path style="fill:none;stroke:black;" d="M308,150C308,144 301,138 295,138"/>
<polyline style="fill:none;stroke:black;" points="295,138 168,138 "/>
<path style="fill:none;stroke:black;" d="M168,138C162,138 157,144 157,150"/>
<polyline style="fill:none;stroke:black;" points="157,150 157,318 "/>
<path style="fill:none;stroke:black;" d="M157,318C157,324 163,330 169,330"/>
<text text-anchor="middle" x="232" y="155">ConsultationsController</text>
<polyline style="fill:none;stroke:black;" points="157,162 308,162 "/>
<text text-anchor="start" x="165" y="179">create</text>
<text text-anchor="start" x="165" y="195">destroy</text>
<text text-anchor="start" x="165" y="211">edit</text>
<text text-anchor="start" x="165" y="227">index</text>
<text text-anchor="start" x="165" y="243">new</text>
<text text-anchor="start" x="165" y="259">show</text>
<text text-anchor="start" x="165" y="275">update</text>
<polyline style="fill:none;stroke:black;" points="157,282 308,282 "/>
<polyline style="fill:none;stroke:black;" points="157,306 308,306 "/>
<text text-anchor="start" x="165" y="323">_layout</text>
</g>
<!-- ApplicationController -->
<g id="node5" class="node"><title>ApplicationController</title>
<polyline style="fill:none;stroke:black;" points="510,463 689,463 "/>
<path style="fill:none;stroke:black;" d="M689,463C696,463 702,458 702,452"/>
<polyline style="fill:none;stroke:black;" points="702,452 702,363 "/>
<path style="fill:none;stroke:black;" d="M702,363C702,358 696,351 690,351"/>
<polyline style="fill:none;stroke:black;" points="690,351 511,351 "/>
<path style="fill:none;stroke:black;" d="M511,351C504,351 499,357 499,363"/>
<polyline style="fill:none;stroke:black;" points="499,363 499,452 "/>
<path style="fill:none;stroke:black;" d="M499,452C499,457 504,463 510,463"/>
<text text-anchor="middle" x="600" y="368">ApplicationController</text>
<polyline style="fill:none;stroke:black;" points="499,375 702,375 "/>
<text text-anchor="start" x="507" y="392">_one_time_conditions_valid_12?</text>
<polyline style="fill:none;stroke:black;" points="499,399 702,399 "/>
<polyline style="fill:none;stroke:black;" points="499,423 702,423 "/>
<text text-anchor="start" x="507" y="440">_layout</text>
<text text-anchor="start" x="507" y="456">_run_process_action_callbacks</text>
</g>
<!-- PatientsController -->
<g id="node6" class="node"><title>PatientsController</title>
<polyline style="fill:none;stroke:black;" points="36,425 131,425 "/>
<path style="fill:none;stroke:black;" d="M131,425C136,425 143,419 143,413"/>
<polyline style="fill:none;stroke:black;" points="143,413 143,245 "/>
<path style="fill:none;stroke:black;" d="M143,245C143,239 136,233 130,233"/>
<polyline style="fill:none;stroke:black;" points="130,233 35,233 "/>
<path style="fill:none;stroke:black;" d="M35,233C30,233 24,239 24,245"/>
<polyline style="fill:none;stroke:black;" points="24,245 24,413 "/>
<path style="fill:none;stroke:black;" d="M24,413C24,419 30,425 36,425"/>
<text text-anchor="middle" x="83" y="250">PatientsController</text>
<polyline style="fill:none;stroke:black;" points="24,257 143,257 "/>
<text text-anchor="start" x="32" y="274">create</text>
<text text-anchor="start" x="32" y="290">destroy</text>
<text text-anchor="start" x="32" y="306">edit</text>
<text text-anchor="start" x="32" y="322">index</text>
<text text-anchor="start" x="32" y="338">new</text>
<text text-anchor="start" x="32" y="354">show</text>
<text text-anchor="start" x="32" y="370">update</text>
<polyline style="fill:none;stroke:black;" points="24,377 143,377 "/>
<polyline style="fill:none;stroke:black;" points="24,401 143,401 "/>
<text text-anchor="start" x="32" y="418">_layout</text>
</g>
<!-- ClassificationsController -->
<g id="node7" class="node"><title>ClassificationsController</title>
<polyline style="fill:none;stroke:black;" points="168,539 302,539 "/>
<path style="fill:none;stroke:black;" d="M302,539C308,539 314,533 314,527"/>
<polyline style="fill:none;stroke:black;" points="314,527 314,359 "/>
<path style="fill:none;stroke:black;" d="M314,359C314,353 308,347 302,347"/>
<polyline style="fill:none;stroke:black;" points="302,347 168,347 "/>
<path style="fill:none;stroke:black;" d="M168,347C162,347 157,353 157,359"/>
<polyline style="fill:none;stroke:black;" points="157,359 157,527 "/>
<path style="fill:none;stroke:black;" d="M157,527C157,533 162,539 168,539"/>
<text text-anchor="middle" x="235" y="364">ClassificationsController</text>
<polyline style="fill:none;stroke:black;" points="157,371 314,371 "/>
<text text-anchor="start" x="165" y="388">create</text>
<text text-anchor="start" x="165" y="404">destroy</text>
<text text-anchor="start" x="165" y="420">edit</text>
<text text-anchor="start" x="165" y="436">index</text>
<text text-anchor="start" x="165" y="452">new</text>
<text text-anchor="start" x="165" y="468">show</text>
<text text-anchor="start" x="165" y="484">update</text>
<polyline style="fill:none;stroke:black;" points="157,491 314,491 "/>
<polyline style="fill:none;stroke:black;" points="157,515 314,515 "/>
<text text-anchor="start" x="165" y="532">_layout</text>
</g>
<!-- HospitalsController -->
<g id="node8" class="node"><title>HospitalsController</title>
<polyline style="fill:none;stroke:black;" points="17,634 121,634 "/>
<path style="fill:none;stroke:black;" d="M121,634C127,634 133,628 133,622"/>
<polyline style="fill:none;stroke:black;" points="133,622 133,454 "/>
<path style="fill:none;stroke:black;" d="M133,454C133,448 127,442 121,442"/>
<polyline style="fill:none;stroke:black;" points="121,442 17,442 "/>
<path style="fill:none;stroke:black;" d="M17,442C11,442 5,448 5,454"/>
<polyline style="fill:none;stroke:black;" points="5,454 5,622 "/>
<path style="fill:none;stroke:black;" d="M5,622C5,628 11,634 17,634"/>
<text text-anchor="middle" x="69" y="459">HospitalsController</text>
<polyline style="fill:none;stroke:black;" points="5,466 133,466 "/>
<text text-anchor="start" x="13" y="483">create</text>
<text text-anchor="start" x="13" y="499">destroy</text>
<text text-anchor="start" x="13" y="515">edit</text>
<text text-anchor="start" x="13" y="531">index</text>
<text text-anchor="start" x="13" y="547">new</text>
<text text-anchor="start" x="13" y="563">show</text>
<text text-anchor="start" x="13" y="579">update</text>
<polyline style="fill:none;stroke:black;" points="5,586 133,586 "/>
<polyline style="fill:none;stroke:black;" points="5,610 133,610 "/>
<text text-anchor="start" x="13" y="627">_layout</text>
</g>
<!-- MedicsController -->
<g id="node9" class="node"><title>MedicsController</title>
<polyline style="fill:none;stroke:black;" points="35,197 129,197 "/>
<path style="fill:none;stroke:black;" d="M129,197C134,197 141,191 141,185"/>
<polyline style="fill:none;stroke:black;" points="141,185 141,17 "/>
<path style="fill:none;stroke:black;" d="M141,17C141,11 135,5 129,5"/>
<polyline style="fill:none;stroke:black;" points="129,5 35,5 "/>
<path style="fill:none;stroke:black;" d="M35,5C30,5 24,11 24,17"/>
<polyline style="fill:none;stroke:black;" points="24,17 24,185 "/>
<path style="fill:none;stroke:black;" d="M24,185C24,191 29,197 35,197"/>
<text text-anchor="middle" x="82" y="22">MedicsController</text>
<polyline style="fill:none;stroke:black;" points="24,29 141,29 "/>
<text text-anchor="start" x="32" y="46">create</text>
<text text-anchor="start" x="32" y="62">destroy</text>
<text text-anchor="start" x="32" y="78">edit</text>
<text text-anchor="start" x="32" y="94">index</text>
<text text-anchor="start" x="32" y="110">new</text>
<text text-anchor="start" x="32" y="126">show</text>
<text text-anchor="start" x="32" y="142">update</text>
<polyline style="fill:none;stroke:black;" points="24,149 141,149 "/>
<polyline style="fill:none;stroke:black;" points="24,173 141,173 "/>
<text text-anchor="start" x="32" y="190">_layout</text>
</g>
<!-- OutcomesController -->
<g id="node10" class="node"><title>OutcomesController</title>
<polyline style="fill:none;stroke:black;" points="511,672 617,672 "/>
<path style="fill:none;stroke:black;" d="M617,672C624,672 630,666 630,660"/>
<polyline style="fill:none;stroke:black;" points="630,660 630,492 "/>
<path style="fill:none;stroke:black;" d="M630,492C630,486 624,480 618,480"/>
<polyline style="fill:none;stroke:black;" points="618,480 511,480 "/>
<path style="fill:none;stroke:black;" d="M511,480C504,480 499,486 499,492"/>
<polyline style="fill:none;stroke:black;" points="499,492 499,660 "/>
<path style="fill:none;stroke:black;" d="M499,660C499,666 505,672 511,672"/>
<text text-anchor="middle" x="564" y="497">OutcomesController</text>
<polyline style="fill:none;stroke:black;" points="499,504 630,504 "/>
<text text-anchor="start" x="507" y="521">create</text>
<text text-anchor="start" x="507" y="537">destroy</text>
<text text-anchor="start" x="507" y="553">edit</text>
<text text-anchor="start" x="507" y="569">index</text>
<text text-anchor="start" x="507" y="585">new</text>
<text text-anchor="start" x="507" y="601">show</text>
<text text-anchor="start" x="507" y="617">update</text>
<polyline style="fill:none;stroke:black;" points="499,624 630,624 "/>
<polyline style="fill:none;stroke:black;" points="499,648 630,648 "/>
<text text-anchor="start" x="507" y="665">_layout</text>
</g>
<!-- CharacteristicsController -->
<g id="node11" class="node"><title>CharacteristicsController</title>
<polyline style="fill:none;stroke:black;" points="340,501 474,501 "/>
<path style="fill:none;stroke:black;" d="M474,501C480,501 486,495 486,489"/>
<polyline style="fill:none;stroke:black;" points="486,489 486,321 "/>
<path style="fill:none;stroke:black;" d="M486,321C486,315 479,309 473,309"/>
<polyline style="fill:none;stroke:black;" points="473,309 339,309 "/>
<path style="fill:none;stroke:black;" d="M339,309C333,309 328,315 328,321"/>
<polyline style="fill:none;stroke:black;" points="328,321 328,489 "/>
<path style="fill:none;stroke:black;" d="M328,489C328,495 334,501 340,501"/>
<text text-anchor="middle" x="407" y="326">CharacteristicsController</text>
<polyline style="fill:none;stroke:black;" points="328,333 486,333 "/>
<text text-anchor="start" x="336" y="350">create</text>
<text text-anchor="start" x="336" y="366">destroy</text>
<text text-anchor="start" x="336" y="382">edit</text>
<text text-anchor="start" x="336" y="398">index</text>
<text text-anchor="start" x="336" y="414">new</text>
<text text-anchor="start" x="336" y="430">show</text>
<text text-anchor="start" x="336" y="446">update</text>
<polyline style="fill:none;stroke:black;" points="328,453 486,453 "/>
<polyline style="fill:none;stroke:black;" points="328,477 486,477 "/>
<text text-anchor="start" x="336" y="494">_layout</text>
</g>
</g>
</svg>
