<?xml version="1.0" encoding="UTF-8" standalone="no"?>
<!DOCTYPE svg PUBLIC "-//W3C//DTD SVG 1.0//EN"
 "http://www.w3.org/TR/2001/REC-SVG-20010904/DTD/svg10.dtd" [
 <!ATTLIST svg xmlns:xlink CDATA #FIXED "http://www.w3.org/1999/xlink">
]>
<!-- Generated by dot version 2.8 (Wed Oct  4 21:39:46 UTC 2006)
     For user: (garan) Garan Jones -->
<!-- Title: models_diagram Pages: 1 -->
<svg width="1012pt" height="380pt"
 viewBox = "0 0 1012 380"
 xmlns="http://www.w3.org/2000/svg" xmlns:xlink="http://www.w3.org/1999/xlink">
<g id="graph0" class="graph" style="font-family:Times-Roman;font-size:14.00;">
<title>models_diagram</title>
<polygon style="fill:white;stroke:white;" points="-2,382 -2,-2 1014,-2 1014,382 -2,382"/>
<!-- _diagram_info -->
<g id="node1" class="node"><title>_diagram_info</title>
<text text-anchor="start" x="216" y="20" style="font-size:13.00pt;">Models diagram</text>
<text text-anchor="start" x="216" y="35" style="font-size:13.00pt;">Date: Sep 20 2011 &#45; 16:09</text>
<text text-anchor="start" x="216" y="50" style="font-size:13.00pt;">Migration version: 20110920135845</text>
<text text-anchor="start" x="216" y="65" style="font-size:13.00pt;">Generated by RailRoady 1.0.2</text>
<text text-anchor="start" x="216" y="80" style="font-size:13.00pt;">http://railroady.prestonlee.com</text>
</g>
<!-- Physical -->
<g id="node2" class="node"><title>Physical</title>
<ellipse style="fill:none;stroke:black;" cx="313" cy="358" rx="37" ry="18"/>
<text text-anchor="middle" x="313" y="363">Physical</text>
</g>
<!-- Treatment -->
<g id="node3" class="node"><title>Treatment</title>
<ellipse style="fill:none;stroke:black;" cx="46" cy="286" rx="42" ry="18"/>
<text text-anchor="middle" x="46" y="291">Treatment</text>
</g>
<!-- Consultation -->
<g id="node14" class="node"><title>Consultation</title>
<ellipse style="fill:none;stroke:black;" cx="510" cy="214" rx="49" ry="18"/>
<text text-anchor="middle" x="510" y="219">Consultation</text>
</g>
<!-- Treatment&#45;&gt;Consultation -->
<g id="edge2" class="edge"><title>Treatment&#45;&gt;Consultation</title>
<path style="fill:none;stroke:black;" d="M90,273C97,271 105,269 111,268 233,241 376,226 454,219"/>
<ellipse style="fill:none;stroke:black;" cx="86" cy="275" rx="4" ry="4"/>
<ellipse style="fill:black;stroke:black;" cx="458" cy="218" rx="4" ry="4"/>
</g>
<!-- Patient -->
<g id="node4" class="node"><title>Patient</title>
<ellipse style="fill:none;stroke:black;" cx="469" cy="142" rx="33" ry="18"/>
<text text-anchor="middle" x="469" y="147">Patient</text>
</g>
<!-- Patient&#45;&gt;Consultation -->
<g id="edge4" class="edge"><title>Patient&#45;&gt;Consultation</title>
<path style="fill:none;stroke:black;" d="M483,166C486,173 490,180 494,187"/>
<ellipse style="fill:none;stroke:black;" cx="481" cy="162" rx="4" ry="4"/>
<polygon style="fill:black;stroke:black;" points="494,188 504,194 496,190 500,196 496,190 496,198 494,188 494,188"/>
</g>
<!-- Investigation -->
<g id="node5" class="node"><title>Investigation</title>
<ellipse style="fill:none;stroke:black;" cx="193" cy="286" rx="49" ry="18"/>
<text text-anchor="middle" x="193" y="291">Investigation</text>
</g>
<!-- Hospital -->
<g id="node6" class="node"><title>Hospital</title>
<ellipse style="fill:none;stroke:black;" cx="297" cy="286" rx="37" ry="18"/>
<text text-anchor="middle" x="297" y="291">Hospital</text>
</g>
<!-- Admission -->
<g id="node7" class="node"><title>Admission</title>
<ellipse style="fill:none;stroke:black;" cx="396" cy="286" rx="44" ry="18"/>
<text text-anchor="middle" x="396" y="291">Admission</text>
</g>
<!-- Ethnicity -->
<g id="node8" class="node"><title>Ethnicity</title>
<ellipse style="fill:none;stroke:black;" cx="469" cy="46" rx="39" ry="18"/>
<text text-anchor="middle" x="469" y="51">Ethnicity</text>
</g>
<!-- Ethnicity&#45;&gt;Patient -->
<g id="edge6" class="edge"><title>Ethnicity&#45;&gt;Patient</title>
<path style="fill:none;stroke:black;" d="M469,72C469,86 469,103 469,116"/>
<ellipse style="fill:none;stroke:black;" cx="469" cy="68" rx="4" ry="4"/>
<ellipse style="fill:black;stroke:black;" cx="469" cy="120" rx="4" ry="4"/>
</g>
<!-- Property -->
<g id="node9" class="node"><title>Property</title>
<ellipse style="fill:none;stroke:black;" cx="564" cy="46" rx="38" ry="18"/>
<text text-anchor="middle" x="564" y="51">Property</text>
</g>
<!-- Comment -->
<g id="node10" class="node"><title>Comment</title>
<ellipse style="fill:none;stroke:black;" cx="661" cy="46" rx="41" ry="18"/>
<text text-anchor="middle" x="661" y="51">Comment</text>
</g>
<!-- Condition -->
<g id="node11" class="node"><title>Condition</title>
<ellipse style="fill:none;stroke:black;" cx="699" cy="358" rx="41" ry="18"/>
<text text-anchor="middle" x="699" y="363">Condition</text>
</g>
<!-- Drug -->
<g id="node12" class="node"><title>Drug</title>
<ellipse style="fill:none;stroke:black;" cx="846" cy="286" rx="28" ry="18"/>
<text text-anchor="middle" x="846" y="291">Drug</text>
</g>
<!-- Prescription -->
<g id="node16" class="node"><title>Prescription</title>
<ellipse style="fill:none;stroke:black;" cx="874" cy="358" rx="48" ry="18"/>
<text text-anchor="middle" x="874" y="363">Prescription</text>
</g>
<!-- Drug&#45;&gt;Prescription -->
<g id="edge8" class="edge"><title>Drug&#45;&gt;Prescription</title>
<path style="fill:none;stroke:black;" d="M856,312C859,318 861,324 864,330"/>
<ellipse style="fill:none;stroke:black;" cx="854" cy="308" rx="4" ry="4"/>
<polygon style="fill:black;stroke:black;" points="864,330 871,339 865,333 867,340 865,333 863,341 864,330 864,330"/>
</g>
<!-- Assay -->
<g id="node13" class="node"><title>Assay</title>
<ellipse style="fill:none;stroke:black;" cx="732" cy="286" rx="30" ry="18"/>
<text text-anchor="middle" x="732" y="291">Assay</text>
</g>
<!-- Consultation&#45;&gt;Physical -->
<g id="edge18" class="edge"><title>Consultation&#45;&gt;Physical</title>
<path style="fill:none;stroke:black;" d="M454,219C354,226 155,245 135,268 93,316 201,341 267,352"/>
<ellipse style="fill:none;stroke:black;" cx="458" cy="218" rx="4" ry="4"/>
<polygon style="fill:black;stroke:black;" points="267,352 277,349 270,352 277,353 270,352 277,357 267,352 267,352"/>
</g>
<!-- Consultation&#45;&gt;Treatment -->
<g id="edge12" class="edge"><title>Consultation&#45;&gt;Treatment</title>
<path style="fill:none;stroke:black;" d="M454,218C373,224 221,240 93,268 90,268 87,269 85,270"/>
<ellipse style="fill:none;stroke:black;" cx="458" cy="217" rx="4" ry="4"/>
<polygon style="fill:black;stroke:black;" points="85,270 76,277 82,271 75,273 82,271 74,269 85,270 85,270"/>
</g>
<!-- Consultation&#45;&gt;Investigation -->
<g id="edge26" class="edge"><title>Consultation&#45;&gt;Investigation</title>
<path style="fill:none;stroke:black;" d="M458,224C405,234 321,250 251,268 247,269 244,270 240,271"/>
<ellipse style="fill:none;stroke:black;" cx="462" cy="223" rx="4" ry="4"/>
<polygon style="fill:black;stroke:black;" points="240,271 231,278 237,272 230,274 237,272 229,270 240,271 240,271"/>
</g>
<!-- Consultation&#45;&gt;Hospital -->
<g id="edge16" class="edge"><title>Consultation&#45;&gt;Hospital</title>
<path style="fill:none;stroke:black;" d="M462,229C428,239 383,253 343,268 341,269 338,270 335,271"/>
<polygon style="fill:black;stroke:black;" points="462,229 471,222 465,228 472,226 465,228 473,230 462,229 462,229"/>
<polygon style="fill:black;stroke:black;" points="335,271 328,279 332,272 326,275 332,272 324,271 335,271 335,271"/>
</g>
<!-- Consultation&#45;&gt;Admission -->
<g id="edge14" class="edge"><title>Consultation&#45;&gt;Admission</title>
<path style="fill:none;stroke:black;" d="M478,234C463,244 445,256 429,266"/>
<ellipse style="fill:none;stroke:black;" cx="482" cy="232" rx="4" ry="4"/>
<polygon style="fill:black;stroke:black;" points="429,266 422,275 426,268 420,271 426,268 418,267 429,266 429,266"/>
</g>
<!-- Consultation&#45;&gt;Condition -->
<g id="edge30" class="edge"><title>Consultation&#45;&gt;Condition</title>
<path style="fill:none;stroke:black;" d="M566,218C635,224 745,237 771,268 781,281 778,290 771,304 764,319 750,331 737,339"/>
<ellipse style="fill:none;stroke:black;" cx="562" cy="217" rx="4" ry="4"/>
<polygon style="fill:black;stroke:black;" points="736,339 730,349 734,341 728,345 734,341 726,341 736,339 736,339"/>
</g>
<!-- Consultation&#45;&gt;Drug -->
<g id="edge24" class="edge"><title>Consultation&#45;&gt;Drug</title>
<path style="fill:none;stroke:black;" d="M567,220C626,229 723,244 804,268 807,269 810,270 814,271"/>
<polygon style="fill:black;stroke:black;" points="567,220 557,223 564,220 557,219 564,220 557,215 567,220 567,220"/>
<polygon style="fill:black;stroke:black;" points="814,271 825,271 817,272 823,275 817,272 821,279 814,271 814,271"/>
</g>
<!-- Consultation&#45;&gt;Assay -->
<g id="edge28" class="edge"><title>Consultation&#45;&gt;Assay</title>
<path style="fill:none;stroke:black;" d="M560,227C597,237 649,251 693,268 695,269 697,269 699,270"/>
<polygon style="fill:black;stroke:black;" points="560,227 549,228 557,226 550,224 557,226 551,220 560,227 560,227"/>
<polygon style="fill:black;stroke:black;" points="699,270 710,271 702,272 708,275 702,272 706,279 699,270 699,270"/>
</g>
<!-- Classification -->
<g id="node15" class="node"><title>Classification</title>
<ellipse style="fill:none;stroke:black;" cx="632" cy="286" rx="52" ry="18"/>
<text text-anchor="middle" x="632" y="291">Classification</text>
</g>
<!-- Consultation&#45;&gt;Classification -->
<g id="edge32" class="edge"><title>Consultation&#45;&gt;Classification</title>
<path style="fill:none;stroke:black;" d="M545,234C561,244 580,255 596,265"/>
<polygon style="fill:black;stroke:black;" points="545,234 534,233 542,232 536,229 542,232 538,225 545,234 545,234"/>
<polygon style="fill:black;stroke:black;" points="596,265 607,266 599,267 605,270 599,267 603,274 596,265 596,265"/>
</g>
<!-- Consultation&#45;&gt;Prescription -->
<g id="edge22" class="edge"><title>Consultation&#45;&gt;Prescription</title>
<path style="fill:none;stroke:black;" d="M566,219C665,226 863,245 883,268 897,285 893,311 887,330"/>
<ellipse style="fill:none;stroke:black;" cx="562" cy="218" rx="4" ry="4"/>
<polygon style="fill:black;stroke:black;" points="887,331 887,342 886,334 883,340 886,334 879,338 887,331 887,331"/>
</g>
<!-- Characteristic -->
<g id="node18" class="node"><title>Characteristic</title>
<ellipse style="fill:none;stroke:black;" cx="510" cy="286" rx="52" ry="18"/>
<text text-anchor="middle" x="510" y="291">Characteristic</text>
</g>
<!-- Consultation&#45;&gt;Characteristic -->
<g id="edge20" class="edge"><title>Consultation&#45;&gt;Characteristic</title>
<path style="fill:none;stroke:black;" d="M510,242C510,247 510,253 510,258"/>
<polygon style="fill:black;stroke:black;" points="510,242 506,232 510,239 510,232 510,239 515,232 510,242 510,242"/>
<polygon style="fill:black;stroke:black;" points="510,258 515,268 510,261 510,268 510,261 506,268 510,258 510,258"/>
</g>
<!-- Outcome -->
<g id="node19" class="node"><title>Outcome</title>
<ellipse style="fill:none;stroke:black;" cx="969" cy="286" rx="39" ry="18"/>
<text text-anchor="middle" x="969" y="291">Outcome</text>
</g>
<!-- Consultation&#45;&gt;Outcome -->
<g id="edge10" class="edge"><title>Consultation&#45;&gt;Outcome</title>
<path style="fill:none;stroke:black;" d="M566,218C646,225 793,240 916,268 920,269 924,270 928,272"/>
<ellipse style="fill:none;stroke:black;" cx="562" cy="217" rx="4" ry="4"/>
<polygon style="fill:black;stroke:black;" points="928,272 939,271 931,273 938,275 931,273 937,279 928,272 928,272"/>
</g>
<!-- Classification&#45;&gt;Condition -->
<g id="edge34" class="edge"><title>Classification&#45;&gt;Condition</title>
<path style="fill:none;stroke:black;" d="M654,309C661,317 669,326 676,333"/>
<ellipse style="fill:none;stroke:black;" cx="651" cy="306" rx="4" ry="4"/>
<polygon style="fill:black;stroke:black;" points="676,333 686,338 678,336 683,341 678,336 680,344 676,333 676,333"/>
</g>
<!-- Medic -->
<g id="node17" class="node"><title>Medic</title>
<ellipse style="fill:none;stroke:black;" cx="551" cy="142" rx="31" ry="18"/>
<text text-anchor="middle" x="551" y="147">Medic</text>
</g>
<!-- Medic&#45;&gt;Consultation -->
<g id="edge36" class="edge"><title>Medic&#45;&gt;Consultation</title>
<path style="fill:none;stroke:black;" d="M537,166C534,173 530,180 526,187"/>
<ellipse style="fill:none;stroke:black;" cx="539" cy="162" rx="4" ry="4"/>
<polygon style="fill:black;stroke:black;" points="526,188 524,198 524,190 520,196 524,190 516,194 526,188 526,188"/>
</g>
<!-- Characteristic&#45;&gt;Physical -->
<g id="edge38" class="edge"><title>Characteristic&#45;&gt;Physical</title>
<path style="fill:none;stroke:black;" d="M466,302C432,315 386,331 353,343"/>
<ellipse style="fill:none;stroke:black;" cx="470" cy="300" rx="4" ry="4"/>
<polygon style="fill:black;stroke:black;" points="352,343 345,351 349,344 343,347 349,344 341,343 352,343 352,343"/>
</g>
</g>
</svg>
