<?xml version="1.0" encoding="UTF-8" standalone="no"?>
<!DOCTYPE svg PUBLIC "-//W3C//DTD SVG 1.0//EN"
 "http://www.w3.org/TR/2001/REC-SVG-20010904/DTD/svg10.dtd" [
 <!ATTLIST svg xmlns:xlink CDATA #FIXED "http://www.w3.org/1999/xlink">
]>
<!-- Generated by dot version 2.8 (Wed Oct  4 21:39:46 UTC 2006)
     For user: (garan) Garan Jones -->
<!-- Title: models_diagram Pages: 1 -->
<svg width="1476pt" height="840pt"
 viewBox = "0 0 1476 840"
 xmlns="http://www.w3.org/2000/svg" xmlns:xlink="http://www.w3.org/1999/xlink">
<g id="graph0" class="graph" style="font-family:Times-Roman;font-size:14.00;">
<title>models_diagram</title>
<polygon style="fill:white;stroke:white;" points="-2,842 -2,-2 1478,-2 1478,842 -2,842"/>
<!-- _diagram_info -->
<g id="node1" class="node"><title>_diagram_info</title>
<text text-anchor="start" x="346" y="26" style="font-size:13.00pt;">Models diagram</text>
<text text-anchor="start" x="346" y="41" style="font-size:13.00pt;">Date: Sep 20 2011 &#45; 16:09</text>
<text text-anchor="start" x="346" y="56" style="font-size:13.00pt;">Migration version: 20110920135845</text>
<text text-anchor="start" x="346" y="71" style="font-size:13.00pt;">Generated by RailRoady 1.0.2</text>
<text text-anchor="start" x="346" y="86" style="font-size:13.00pt;">http://railroady.prestonlee.com</text>
</g>
<!-- Physical -->
<g id="node2" class="node"><title>Physical</title>
<polyline style="fill:none;stroke:black;" points="506,828 616,828 "/>
<path style="fill:none;stroke:black;" d="M616,828C622,828 629,823 629,817"/>
<polyline style="fill:none;stroke:black;" points="629,817 629,728 "/>
<path style="fill:none;stroke:black;" d="M629,728C629,723 623,716 617,716"/>
<polyline style="fill:none;stroke:black;" points="617,716 507,716 "/>
<path style="fill:none;stroke:black;" d="M507,716C501,716 495,722 495,728"/>
<polyline style="fill:none;stroke:black;" points="495,728 495,817 "/>
<path style="fill:none;stroke:black;" d="M495,817C495,822 500,828 506,828"/>
<text text-anchor="middle" x="562" y="733">Physical</text>
<polyline style="fill:none;stroke:black;" points="495,740 629,740 "/>
<text text-anchor="start" x="503" y="757">date_taken :date</text>
<text text-anchor="start" x="503" y="773">measure :string</text>
<text text-anchor="start" x="503" y="789">comment :text</text>
<text text-anchor="start" x="503" y="805">created_at :datetime</text>
<text text-anchor="start" x="503" y="821">updated_at :datetime</text>
</g>
<!-- Treatment -->
<g id="node3" class="node"><title>Treatment</title>
<polyline style="fill:none;stroke:black;" points="15,664 125,664 "/>
<path style="fill:none;stroke:black;" d="M125,664C131,664 138,659 138,653"/>
<polyline style="fill:none;stroke:black;" points="138,653 138,564 "/>
<path style="fill:none;stroke:black;" d="M138,564C138,559 132,552 126,552"/>
<polyline style="fill:none;stroke:black;" points="126,552 16,552 "/>
<path style="fill:none;stroke:black;" d="M16,552C10,552 4,558 4,564"/>
<polyline style="fill:none;stroke:black;" points="4,564 4,653 "/>
<path style="fill:none;stroke:black;" d="M4,653C4,658 9,664 15,664"/>
<text text-anchor="middle" x="71" y="569">Treatment</text>
<polyline style="fill:none;stroke:black;" points="4,576 138,576 "/>
<text text-anchor="start" x="12" y="593">treated :string</text>
<text text-anchor="start" x="12" y="609">date_start :date</text>
<text text-anchor="start" x="12" y="625">date_end :date</text>
<text text-anchor="start" x="12" y="641">created_at :datetime</text>
<text text-anchor="start" x="12" y="657">updated_at :datetime</text>
</g>
<!-- Consultation -->
<g id="node14" class="node"><title>Consultation</title>
<polyline style="fill:none;stroke:black;" points="665,508 775,508 "/>
<path style="fill:none;stroke:black;" d="M775,508C781,508 788,502 788,496"/>
<polyline style="fill:none;stroke:black;" points="788,496 788,424 "/>
<path style="fill:none;stroke:black;" d="M788,424C788,418 782,412 776,412"/>
<polyline style="fill:none;stroke:black;" points="776,412 666,412 "/>
<path style="fill:none;stroke:black;" d="M666,412C660,412 654,418 654,424"/>
<polyline style="fill:none;stroke:black;" points="654,424 654,496 "/>
<path style="fill:none;stroke:black;" d="M654,496C654,502 659,508 665,508"/>
<text text-anchor="middle" x="721" y="429">Consultation</text>
<polyline style="fill:none;stroke:black;" points="654,436 788,436 "/>
<text text-anchor="start" x="662" y="453">consulted_date :date</text>
<text text-anchor="start" x="662" y="469">current_state :string</text>
<text text-anchor="start" x="662" y="485">created_at :datetime</text>
<text text-anchor="start" x="662" y="501">updated_at :datetime</text>
</g>
<!-- Treatment&#45;&gt;Consultation -->
<g id="edge2" class="edge"><title>Treatment&#45;&gt;Consultation</title>
<path style="fill:none;stroke:black;" d="M145,553C150,549 155,546 161,544 247,507 514,479 646,467"/>
<ellipse style="fill:none;stroke:black;" cx="141" cy="555" rx="4" ry="4"/>
<ellipse style="fill:black;stroke:black;" cx="650" cy="466" rx="4" ry="4"/>
</g>
<!-- Patient -->
<g id="node4" class="node"><title>Patient</title>
<polyline style="fill:none;stroke:black;" points="536,376 718,376 "/>
<path style="fill:none;stroke:black;" d="M718,376C724,376 730,370 730,364"/>
<polyline style="fill:none;stroke:black;" points="730,364 730,149 "/>
<path style="fill:none;stroke:black;" d="M730,149C730,143 723,136 717,136"/>
<polyline style="fill:none;stroke:black;" points="717,136 535,136 "/>
<path style="fill:none;stroke:black;" d="M535,136C529,136 524,143 524,149"/>
<polyline style="fill:none;stroke:black;" points="524,149 524,364 "/>
<path style="fill:none;stroke:black;" d="M524,364C524,370 530,376 536,376"/>
<text text-anchor="middle" x="627" y="153">Patient</text>
<polyline style="fill:none;stroke:black;" points="524,160 730,160 "/>
<text text-anchor="start" x="532" y="177">current_state :string</text>
<text text-anchor="start" x="532" y="193">encrypted_nhs_number :string</text>
<text text-anchor="start" x="532" y="209">encrypted_initials :string</text>
<text text-anchor="start" x="532" y="225">encrypted_postcode :string</text>
<text text-anchor="start" x="532" y="241">encrypted_town_of_birth :string</text>
<text text-anchor="start" x="532" y="257">encrypted_sex :string</text>
<text text-anchor="start" x="532" y="273">encrypted_date_of_birth :string</text>
<text text-anchor="start" x="532" y="289">encrypted_date_of_death :string</text>
<text text-anchor="start" x="532" y="305">encrypted_cause_of_death :string</text>
<text text-anchor="start" x="532" y="321">dod_unknown :boolean</text>
<text text-anchor="start" x="532" y="337">encrypted_ethnicity_other :string</text>
<text text-anchor="start" x="532" y="353">created_at :datetime</text>
<text text-anchor="start" x="532" y="369">updated_at :datetime</text>
</g>
<!-- Patient&#45;&gt;Consultation -->
<g id="edge4" class="edge"><title>Patient&#45;&gt;Consultation</title>
<path style="fill:none;stroke:black;" d="M686,384C689,391 692,397 695,403"/>
<ellipse style="fill:none;stroke:black;" cx="684" cy="380" rx="4" ry="4"/>
<polygon style="fill:black;stroke:black;" points="695,403 703,410 696,406 699,412 696,406 695,414 695,403 695,403"/>
</g>
<!-- Investigation -->
<g id="node5" class="node"><title>Investigation</title>
<polyline style="fill:none;stroke:black;" points="205,656 315,656 "/>
<path style="fill:none;stroke:black;" d="M315,656C321,656 328,650 328,644"/>
<polyline style="fill:none;stroke:black;" points="328,644 328,572 "/>
<path style="fill:none;stroke:black;" d="M328,572C328,566 322,560 316,560"/>
<polyline style="fill:none;stroke:black;" points="316,560 206,560 "/>
<path style="fill:none;stroke:black;" d="M206,560C200,560 194,566 194,572"/>
<polyline style="fill:none;stroke:black;" points="194,572 194,644 "/>
<path style="fill:none;stroke:black;" d="M194,644C194,650 199,656 205,656"/>
<text text-anchor="middle" x="261" y="577">Investigation</text>
<polyline style="fill:none;stroke:black;" points="194,584 328,584 "/>
<text text-anchor="start" x="202" y="601">value :string</text>
<text text-anchor="start" x="202" y="617">date_of_test :date</text>
<text text-anchor="start" x="202" y="633">created_at :datetime</text>
<text text-anchor="start" x="202" y="649">updated_at :datetime</text>
</g>
<!-- Hospital -->
<g id="node6" class="node"><title>Hospital</title>
<polyline style="fill:none;stroke:black;" points="357,640 467,640 "/>
<path style="fill:none;stroke:black;" d="M467,640C473,640 480,634 480,628"/>
<polyline style="fill:none;stroke:black;" points="480,628 480,588 "/>
<path style="fill:none;stroke:black;" d="M480,588C480,582 474,576 468,576"/>
<polyline style="fill:none;stroke:black;" points="468,576 358,576 "/>
<path style="fill:none;stroke:black;" d="M358,576C352,576 346,582 346,588"/>
<polyline style="fill:none;stroke:black;" points="346,588 346,628 "/>
<path style="fill:none;stroke:black;" d="M346,628C346,634 351,640 357,640"/>
<text text-anchor="middle" x="413" y="593">Hospital</text>
<polyline style="fill:none;stroke:black;" points="346,600 480,600 "/>
<text text-anchor="start" x="354" y="617">created_at :datetime</text>
<text text-anchor="start" x="354" y="633">updated_at :datetime</text>
</g>
<!-- Admission -->
<g id="node7" class="node"><title>Admission</title>
<polyline style="fill:none;stroke:black;" points="509,656 624,656 "/>
<path style="fill:none;stroke:black;" d="M624,656C630,656 636,650 636,644"/>
<polyline style="fill:none;stroke:black;" points="636,644 636,572 "/>
<path style="fill:none;stroke:black;" d="M636,572C636,566 630,560 624,560"/>
<polyline style="fill:none;stroke:black;" points="624,560 509,560 "/>
<path style="fill:none;stroke:black;" d="M509,560C503,560 498,566 498,572"/>
<polyline style="fill:none;stroke:black;" points="498,572 498,644 "/>
<path style="fill:none;stroke:black;" d="M498,644C498,650 503,656 509,656"/>
<text text-anchor="middle" x="567" y="577">Admission</text>
<polyline style="fill:none;stroke:black;" points="498,584 636,584 "/>
<text text-anchor="start" x="506" y="601">date_admitted :date</text>
<text text-anchor="start" x="506" y="617">date_discharged :date</text>
<text text-anchor="start" x="506" y="633">created_at :datetime</text>
<text text-anchor="start" x="506" y="649">updated_at :datetime</text>
</g>
<!-- Ethnicity -->
<g id="node8" class="node"><title>Ethnicity</title>
<polyline style="fill:none;stroke:black;" points="571,84 681,84 "/>
<path style="fill:none;stroke:black;" d="M681,84C687,84 694,78 694,72"/>
<polyline style="fill:none;stroke:black;" points="694,72 694,32 "/>
<path style="fill:none;stroke:black;" d="M694,32C694,26 688,20 682,20"/>
<polyline style="fill:none;stroke:black;" points="682,20 572,20 "/>
<path style="fill:none;stroke:black;" d="M572,20C566,20 560,26 560,32"/>
<polyline style="fill:none;stroke:black;" points="560,32 560,72 "/>
<path style="fill:none;stroke:black;" d="M560,72C560,78 565,84 571,84"/>
<text text-anchor="middle" x="627" y="37">Ethnicity</text>
<polyline style="fill:none;stroke:black;" points="560,44 694,44 "/>
<text text-anchor="start" x="568" y="61">created_at :datetime</text>
<text text-anchor="start" x="568" y="77">updated_at :datetime</text>
</g>
<!-- Ethnicity&#45;&gt;Patient -->
<g id="edge6" class="edge"><title>Ethnicity&#45;&gt;Patient</title>
<path style="fill:none;stroke:black;" d="M627,92C627,104 627,115 627,128"/>
<ellipse style="fill:none;stroke:black;" cx="627" cy="88" rx="4" ry="4"/>
<ellipse style="fill:black;stroke:black;" cx="627" cy="132" rx="4" ry="4"/>
</g>
<!-- Property -->
<g id="node9" class="node"><title>Property</title>
<polyline style="fill:none;stroke:black;" points="723,100 833,100 "/>
<path style="fill:none;stroke:black;" d="M833,100C839,100 846,94 846,88"/>
<polyline style="fill:none;stroke:black;" points="846,88 846,16 "/>
<path style="fill:none;stroke:black;" d="M846,16C846,10 840,4 834,4"/>
<polyline style="fill:none;stroke:black;" points="834,4 724,4 "/>
<path style="fill:none;stroke:black;" d="M724,4C718,4 712,10 712,16"/>
<polyline style="fill:none;stroke:black;" points="712,16 712,88 "/>
<path style="fill:none;stroke:black;" d="M712,88C712,94 717,100 723,100"/>
<text text-anchor="middle" x="779" y="21">Property</text>
<polyline style="fill:none;stroke:black;" points="712,28 846,28 "/>
<text text-anchor="start" x="720" y="45">field :string</text>
<text text-anchor="start" x="720" y="61">property_value :text</text>
<text text-anchor="start" x="720" y="77">created_at :datetime</text>
<text text-anchor="start" x="720" y="93">updated_at :datetime</text>
</g>
<!-- Comment -->
<g id="node10" class="node"><title>Comment</title>
<polyline style="fill:none;stroke:black;" points="875,100 1014,100 "/>
<path style="fill:none;stroke:black;" d="M1014,100C1020,100 1026,94 1026,88"/>
<polyline style="fill:none;stroke:black;" points="1026,88 1026,16 "/>
<path style="fill:none;stroke:black;" d="M1026,16C1026,10 1020,4 1014,4"/>
<polyline style="fill:none;stroke:black;" points="1014,4 875,4 "/>
<path style="fill:none;stroke:black;" d="M875,4C869,4 864,10 864,16"/>
<polyline style="fill:none;stroke:black;" points="864,16 864,88 "/>
<path style="fill:none;stroke:black;" d="M864,88C864,94 869,100 875,100"/>
<text text-anchor="middle" x="945" y="21">Comment</text>
<polyline style="fill:none;stroke:black;" points="864,28 1026,28 "/>
<text text-anchor="start" x="872" y="45">commentable_type :string</text>
<text text-anchor="start" x="872" y="61">description :text</text>
<text text-anchor="start" x="872" y="77">created_at :datetime</text>
<text text-anchor="start" x="872" y="93">updated_at :datetime</text>
</g>
<!-- Condition -->
<g id="node11" class="node"><title>Condition</title>
<polyline style="fill:none;stroke:black;" points="935,836 1045,836 "/>
<path style="fill:none;stroke:black;" d="M1045,836C1051,836 1058,830 1058,824"/>
<polyline style="fill:none;stroke:black;" points="1058,824 1058,720 "/>
<path style="fill:none;stroke:black;" d="M1058,720C1058,714 1052,708 1046,708"/>
<polyline style="fill:none;stroke:black;" points="1046,708 936,708 "/>
<path style="fill:none;stroke:black;" d="M936,708C930,708 924,714 924,720"/>
<polyline style="fill:none;stroke:black;" points="924,720 924,824 "/>
<path style="fill:none;stroke:black;" d="M924,824C924,830 929,836 935,836"/>
<text text-anchor="middle" x="991" y="725">Condition</text>
<polyline style="fill:none;stroke:black;" points="924,732 1058,732 "/>
<text text-anchor="start" x="932" y="749">present :string</text>
<text text-anchor="start" x="932" y="765">onset_date :date</text>
<text text-anchor="start" x="932" y="781">comment :string</text>
<text text-anchor="start" x="932" y="797">modifier :string</text>
<text text-anchor="start" x="932" y="813">created_at :datetime</text>
<text text-anchor="start" x="932" y="829">updated_at :datetime</text>
</g>
<!-- Drug -->
<g id="node12" class="node"><title>Drug</title>
<polyline style="fill:none;stroke:black;" points="1159,640 1269,640 "/>
<path style="fill:none;stroke:black;" d="M1269,640C1275,640 1282,634 1282,628"/>
<polyline style="fill:none;stroke:black;" points="1282,628 1282,588 "/>
<path style="fill:none;stroke:black;" d="M1282,588C1282,582 1276,576 1270,576"/>
<polyline style="fill:none;stroke:black;" points="1270,576 1160,576 "/>
<path style="fill:none;stroke:black;" d="M1160,576C1154,576 1148,582 1148,588"/>
<polyline style="fill:none;stroke:black;" points="1148,588 1148,628 "/>
<path style="fill:none;stroke:black;" d="M1148,628C1148,634 1153,640 1159,640"/>
<text text-anchor="middle" x="1215" y="593">Drug</text>
<polyline style="fill:none;stroke:black;" points="1148,600 1282,600 "/>
<text text-anchor="start" x="1156" y="617">created_at :datetime</text>
<text text-anchor="start" x="1156" y="633">updated_at :datetime</text>
</g>
<!-- Prescription -->
<g id="node16" class="node"><title>Prescription</title>
<polyline style="fill:none;stroke:black;" points="1206,828 1318,828 "/>
<path style="fill:none;stroke:black;" d="M1318,828C1325,828 1331,823 1331,817"/>
<polyline style="fill:none;stroke:black;" points="1331,817 1331,728 "/>
<path style="fill:none;stroke:black;" d="M1331,728C1331,723 1324,716 1318,716"/>
<polyline style="fill:none;stroke:black;" points="1318,716 1206,716 "/>
<path style="fill:none;stroke:black;" d="M1206,716C1199,716 1194,722 1194,728"/>
<polyline style="fill:none;stroke:black;" points="1194,728 1194,817 "/>
<path style="fill:none;stroke:black;" d="M1194,817C1194,822 1200,828 1206,828"/>
<text text-anchor="middle" x="1262" y="733">Prescription</text>
<polyline style="fill:none;stroke:black;" points="1194,740 1331,740 "/>
<text text-anchor="start" x="1202" y="757">prescribed :string</text>
<text text-anchor="start" x="1202" y="773">prescribed_date :date</text>
<text text-anchor="start" x="1202" y="789">category :string</text>
<text text-anchor="start" x="1202" y="805">created_at :datetime</text>
<text text-anchor="start" x="1202" y="821">updated_at :datetime</text>
</g>
<!-- Drug&#45;&gt;Prescription -->
<g id="edge8" class="edge"><title>Drug&#45;&gt;Prescription</title>
<path style="fill:none;stroke:black;" d="M1226,648C1231,666 1238,687 1243,706"/>
<ellipse style="fill:none;stroke:black;" cx="1225" cy="644" rx="4" ry="4"/>
<polygon style="fill:black;stroke:black;" points="1243,706 1250,715 1244,709 1246,716 1244,709 1242,717 1243,706 1243,706"/>
</g>
<!-- Assay -->
<g id="node13" class="node"><title>Assay</title>
<polyline style="fill:none;stroke:black;" points="969,672 1079,672 "/>
<path style="fill:none;stroke:black;" d="M1079,672C1085,672 1092,666 1092,660"/>
<polyline style="fill:none;stroke:black;" points="1092,660 1092,556 "/>
<path style="fill:none;stroke:black;" d="M1092,556C1092,550 1086,544 1080,544"/>
<polyline style="fill:none;stroke:black;" points="1080,544 970,544 "/>
<path style="fill:none;stroke:black;" d="M970,544C964,544 958,550 958,556"/>
<polyline style="fill:none;stroke:black;" points="958,556 958,660 "/>
<path style="fill:none;stroke:black;" d="M958,660C958,666 963,672 969,672"/>
<text text-anchor="middle" x="1025" y="561">Assay</text>
<polyline style="fill:none;stroke:black;" points="958,568 1092,568 "/>
<text text-anchor="start" x="966" y="585">category :string</text>
<text text-anchor="start" x="966" y="601">name :string</text>
<text text-anchor="start" x="966" y="617">description :string</text>
<text text-anchor="start" x="966" y="633">unit :string</text>
<text text-anchor="start" x="966" y="649">created_at :datetime</text>
<text text-anchor="start" x="966" y="665">updated_at :datetime</text>
</g>
<!-- Consultation&#45;&gt;Physical -->
<g id="edge18" class="edge"><title>Consultation&#45;&gt;Physical</title>
<path style="fill:none;stroke:black;" d="M646,467C505,479 215,510 185,544 149,588 151,627 185,672 222,719 386,749 485,763"/>
<ellipse style="fill:none;stroke:black;" cx="650" cy="466" rx="4" ry="4"/>
<polygon style="fill:black;stroke:black;" points="485,763 495,760 488,763 495,764 488,763 495,768 485,763 485,763"/>
</g>
<!-- Consultation&#45;&gt;Treatment -->
<g id="edge12" class="edge"><title>Consultation&#45;&gt;Treatment</title>
<path style="fill:none;stroke:black;" d="M646,466C510,478 232,507 143,544 141,545 139,546 137,547"/>
<ellipse style="fill:none;stroke:black;" cx="650" cy="465" rx="4" ry="4"/>
<polygon style="fill:black;stroke:black;" points="137,547 130,556 134,549 128,552 134,549 126,548 137,547 137,547"/>
</g>
<!-- Consultation&#45;&gt;Investigation -->
<g id="edge26" class="edge"><title>Consultation&#45;&gt;Investigation</title>
<path style="fill:none;stroke:black;" d="M646,466C565,474 437,495 337,544 331,547 326,550 320,554"/>
<ellipse style="fill:none;stroke:black;" cx="650" cy="465" rx="4" ry="4"/>
<polygon style="fill:black;stroke:black;" points="320,554 315,564 318,556 312,560 318,556 309,556 320,554 320,554"/>
</g>
<!-- Consultation&#45;&gt;Hospital -->
<g id="edge16" class="edge"><title>Consultation&#45;&gt;Hospital</title>
<path style="fill:none;stroke:black;" d="M644,481C597,495 538,516 489,544 477,551 465,560 455,569"/>
<polygon style="fill:black;stroke:black;" points="644,481 653,474 647,480 654,478 647,480 655,482 644,481 644,481"/>
<polygon style="fill:black;stroke:black;" points="455,569 450,579 452,571 447,576 452,571 444,573 455,569 455,569"/>
</g>
<!-- Consultation&#45;&gt;Admission -->
<g id="edge14" class="edge"><title>Consultation&#45;&gt;Admission</title>
<path style="fill:none;stroke:black;" d="M665,514C652,527 637,540 624,553"/>
<ellipse style="fill:none;stroke:black;" cx="668" cy="511" rx="4" ry="4"/>
<polygon style="fill:black;stroke:black;" points="624,553 620,563 622,555 617,560 622,555 614,557 624,553 624,553"/>
</g>
<!-- Consultation&#45;&gt;Condition -->
<g id="edge30" class="edge"><title>Consultation&#45;&gt;Condition</title>
<path style="fill:none;stroke:black;" d="M796,466C896,475 1063,497 1101,544 1136,589 1124,620 1101,672 1093,690 1080,706 1066,720"/>
<ellipse style="fill:none;stroke:black;" cx="792" cy="465" rx="4" ry="4"/>
<polygon style="fill:black;stroke:black;" points="1066,720 1061,730 1063,722 1058,727 1063,722 1055,724 1066,720 1066,720"/>
</g>
<!-- Consultation&#45;&gt;Drug -->
<g id="edge24" class="edge"><title>Consultation&#45;&gt;Drug</title>
<path style="fill:none;stroke:black;" d="M798,465C884,474 1024,494 1134,544 1148,551 1161,560 1173,570"/>
<polygon style="fill:black;stroke:black;" points="798,465 788,468 795,465 788,464 795,465 788,460 798,465 798,465"/>
<polygon style="fill:black;stroke:black;" points="1173,570 1184,572 1175,572 1181,576 1175,572 1178,580 1173,570 1173,570"/>
</g>
<!-- Consultation&#45;&gt;Assay -->
<g id="edge28" class="edge"><title>Consultation&#45;&gt;Assay</title>
<path style="fill:none;stroke:black;" d="M798,481C844,495 901,517 949,544 949,544 949,544 950,544"/>
<polygon style="fill:black;stroke:black;" points="798,481 787,482 795,480 788,478 795,480 789,474 798,481 798,481"/>
<polygon style="fill:black;stroke:black;" points="950,544 961,546 952,546 958,550 952,546 955,554 950,544 950,544"/>
</g>
<!-- Classification -->
<g id="node15" class="node"><title>Classification</title>
<polyline style="fill:none;stroke:black;" points="817,640 927,640 "/>
<path style="fill:none;stroke:black;" d="M927,640C933,640 940,634 940,628"/>
<polyline style="fill:none;stroke:black;" points="940,628 940,588 "/>
<path style="fill:none;stroke:black;" d="M940,588C940,582 934,576 928,576"/>
<polyline style="fill:none;stroke:black;" points="928,576 818,576 "/>
<path style="fill:none;stroke:black;" d="M818,576C812,576 806,582 806,588"/>
<polyline style="fill:none;stroke:black;" points="806,588 806,628 "/>
<path style="fill:none;stroke:black;" d="M806,628C806,634 811,640 817,640"/>
<text text-anchor="middle" x="873" y="593">Classification</text>
<polyline style="fill:none;stroke:black;" points="806,600 940,600 "/>
<text text-anchor="start" x="814" y="617">created_at :datetime</text>
<text text-anchor="start" x="814" y="633">updated_at :datetime</text>
</g>
<!-- Consultation&#45;&gt;Classification -->
<g id="edge32" class="edge"><title>Consultation&#45;&gt;Classification</title>
<path style="fill:none;stroke:black;" d="M777,515C796,532 816,552 833,569"/>
<polygon style="fill:black;stroke:black;" points="777,515 767,511 775,513 770,508 775,513 773,505 777,515 777,515"/>
<polygon style="fill:black;stroke:black;" points="833,569 843,573 835,571 840,576 835,571 837,579 833,569 833,569"/>
</g>
<!-- Consultation&#45;&gt;Prescription -->
<g id="edge22" class="edge"><title>Consultation&#45;&gt;Prescription</title>
<path style="fill:none;stroke:black;" d="M796,466C944,478 1259,508 1291,544 1329,588 1314,656 1295,706"/>
<ellipse style="fill:none;stroke:black;" cx="792" cy="465" rx="4" ry="4"/>
<polygon style="fill:black;stroke:black;" points="1295,707 1295,718 1294,710 1291,716 1294,710 1287,714 1295,707 1295,707"/>
</g>
<!-- Characteristic -->
<g id="node18" class="node"><title>Characteristic</title>
<polyline style="fill:none;stroke:black;" points="665,640 775,640 "/>
<path style="fill:none;stroke:black;" d="M775,640C781,640 788,634 788,628"/>
<polyline style="fill:none;stroke:black;" points="788,628 788,588 "/>
<path style="fill:none;stroke:black;" d="M788,588C788,582 782,576 776,576"/>
<polyline style="fill:none;stroke:black;" points="776,576 666,576 "/>
<path style="fill:none;stroke:black;" d="M666,576C660,576 654,582 654,588"/>
<polyline style="fill:none;stroke:black;" points="654,588 654,628 "/>
<path style="fill:none;stroke:black;" d="M654,628C654,634 659,640 665,640"/>
<text text-anchor="middle" x="721" y="593">Characteristic</text>
<polyline style="fill:none;stroke:black;" points="654,600 788,600 "/>
<text text-anchor="start" x="662" y="617">created_at :datetime</text>
<text text-anchor="start" x="662" y="633">updated_at :datetime</text>
</g>
<!-- Consultation&#45;&gt;Characteristic -->
<g id="edge20" class="edge"><title>Consultation&#45;&gt;Characteristic</title>
<path style="fill:none;stroke:black;" d="M721,518C721,534 721,551 721,566"/>
<polygon style="fill:black;stroke:black;" points="721,518 717,508 721,515 721,508 721,515 726,508 721,518 721,518"/>
<polygon style="fill:black;stroke:black;" points="721,566 726,576 721,569 721,576 721,569 717,576 721,566 721,566"/>
</g>
<!-- Outcome -->
<g id="node19" class="node"><title>Outcome</title>
<polyline style="fill:none;stroke:black;" points="1349,640 1459,640 "/>
<path style="fill:none;stroke:black;" d="M1459,640C1465,640 1472,634 1472,628"/>
<polyline style="fill:none;stroke:black;" points="1472,628 1472,588 "/>
<path style="fill:none;stroke:black;" d="M1472,588C1472,582 1466,576 1460,576"/>
<polyline style="fill:none;stroke:black;" points="1460,576 1350,576 "/>
<path style="fill:none;stroke:black;" d="M1350,576C1344,576 1338,582 1338,588"/>
<polyline style="fill:none;stroke:black;" points="1338,588 1338,628 "/>
<path style="fill:none;stroke:black;" d="M1338,628C1338,634 1343,640 1349,640"/>
<text text-anchor="middle" x="1405" y="593">Outcome</text>
<polyline style="fill:none;stroke:black;" points="1338,600 1472,600 "/>
<text text-anchor="start" x="1346" y="617">created_at :datetime</text>
<text text-anchor="start" x="1346" y="633">updated_at :datetime</text>
</g>
<!-- Consultation&#45;&gt;Outcome -->
<g id="edge10" class="edge"><title>Consultation&#45;&gt;Outcome</title>
<path style="fill:none;stroke:black;" d="M796,466C936,477 1230,504 1324,544 1338,551 1352,560 1364,570"/>
<ellipse style="fill:none;stroke:black;" cx="792" cy="465" rx="4" ry="4"/>
<polygon style="fill:black;stroke:black;" points="1364,570 1375,572 1366,572 1372,576 1366,572 1369,580 1364,570 1364,570"/>
</g>
<!-- Classification&#45;&gt;Condition -->
<g id="edge34" class="edge"><title>Classification&#45;&gt;Condition</title>
<path style="fill:none;stroke:black;" d="M901,646C912,662 926,682 939,700"/>
<ellipse style="fill:none;stroke:black;" cx="899" cy="643" rx="4" ry="4"/>
<polygon style="fill:black;stroke:black;" points="939,700 949,705 941,702 945,708 941,702 941,711 939,700 939,700"/>
</g>
<!-- Medic -->
<g id="node17" class="node"><title>Medic</title>
<polyline style="fill:none;stroke:black;" points="759,288 869,288 "/>
<path style="fill:none;stroke:black;" d="M869,288C875,288 882,282 882,276"/>
<polyline style="fill:none;stroke:black;" points="882,276 882,236 "/>
<path style="fill:none;stroke:black;" d="M882,236C882,230 876,224 870,224"/>
<polyline style="fill:none;stroke:black;" points="870,224 760,224 "/>
<path style="fill:none;stroke:black;" d="M760,224C754,224 748,230 748,236"/>
<polyline style="fill:none;stroke:black;" points="748,236 748,276 "/>
<path style="fill:none;stroke:black;" d="M748,276C748,282 753,288 759,288"/>
<text text-anchor="middle" x="815" y="241">Medic</text>
<polyline style="fill:none;stroke:black;" points="748,248 882,248 "/>
<text text-anchor="start" x="756" y="265">created_at :datetime</text>
<text text-anchor="start" x="756" y="281">updated_at :datetime</text>
</g>
<!-- Medic&#45;&gt;Consultation -->
<g id="edge36" class="edge"><title>Medic&#45;&gt;Consultation</title>
<path style="fill:none;stroke:black;" d="M797,295C783,326 764,369 747,403"/>
<ellipse style="fill:none;stroke:black;" cx="798" cy="292" rx="4" ry="4"/>
<polygon style="fill:black;stroke:black;" points="747,403 747,414 746,406 743,412 746,406 739,410 747,403 747,403"/>
</g>
<!-- Characteristic&#45;&gt;Physical -->
<g id="edge38" class="edge"><title>Characteristic&#45;&gt;Physical</title>
<path style="fill:none;stroke:black;" d="M684,646C666,665 644,688 624,709"/>
<ellipse style="fill:none;stroke:black;" cx="687" cy="643" rx="4" ry="4"/>
<polygon style="fill:black;stroke:black;" points="624,709 620,719 622,711 617,716 622,711 614,713 624,709 624,709"/>
</g>
</g>
</svg>
